<?xml version="1.0" encoding="utf-8"?>
<!-- Generator: Adobe Illustrator 18.1.1, SVG Export Plug-In . SVG Version: 6.00 Build 0)  -->
<svg version="1.1" id="Layer_1" xmlns="http://www.w3.org/2000/svg" xmlns:xlink="http://www.w3.org/1999/xlink" x="0px" y="0px"
	 viewBox="850 925 300 150" enable-background="new 850 925 300 150" xml:space="preserve">
<path fill="#525252" d="M1017,1041.8l20.8-106l33.8,76.6l35-76.6l18.6,106h-15.3l-9.5-59.6l-29.2,64.1l-28.3-64.1l-10.6,59.6
	L1017,1041.8L1017,1041.8z"/>
<path fill="#525252" d="M930.6,1050.6h74v13.5h-74V1050.6z"/>
<g>
	<path fill="#525252" d="M919.4,943.2v63.8c0,7.7-0.5,13.3-1.6,17c-1.1,4.2-2.8,7.8-5.5,10.8c-5,5.8-11.6,8.8-19.9,8.8
		c-6.2,0-12-1.6-17.3-4.8l7.3-12.8c3.6,2.5,7,3.6,10.2,3.6c4.4,0,7.5-1.7,9.2-5c1.7-3.4,2.7-9.2,2.7-17.7v-63.6H919.4z"/>
</g>
</svg>
