<?xml version="1.0" encoding="utf-8"?>
<!-- Generator: Adobe Illustrator 18.1.1, SVG Export Plug-In . SVG Version: 6.00 Build 0)  -->
<svg version="1.1" id="Layer_1" xmlns="http://www.w3.org/2000/svg" xmlns:xlink="http://www.w3.org/1999/xlink" x="0px" y="0px"
	 viewBox="0 0 180 100" style="enable-background:new 0 0 180 100;" xml:space="preserve">
<style type="text/css">
	.st0{fill:#494949;}
</style>
<path class="st0" d="M100.4,77.6l13.3-67.8l21.6,49l22.4-49l11.9,67.8h-9.8l-6.1-38.1l-18.7,41l-18.1-41l-6.8,38.1H100.4z"/>
<path class="st0" d="M45.2,83.2h47.3v8.6H45.2V83.2z"/>
<g>
	<path class="st0" d="M38,14.5v40.8c0,4.9-0.3,8.5-1,10.9c-0.7,2.7-1.8,5-3.5,6.9c-3.2,3.7-7.4,5.6-12.7,5.6c-4,0-7.7-1-11.1-3.1
		l4.7-8.2c2.3,1.6,4.5,2.3,6.5,2.3c2.8,0,4.8-1.1,5.9-3.2c1.1-2.2,1.7-5.9,1.7-11.3V14.5H38z"/>
</g>
</svg>
