<?xml version="1.0" encoding="utf-8"?>
<!-- Generator: Adobe Illustrator 18.1.1, SVG Export Plug-In . SVG Version: 6.00 Build 0)  -->
<svg version="1.1" id="Layer_1" xmlns="http://www.w3.org/2000/svg" xmlns:xlink="http://www.w3.org/1999/xlink" x="0px" y="0px"
	 viewBox="850 925 300 150" style="enable-background:new 850 925 300 150;" xml:space="preserve">
<style type="text/css">
	.st0{fill:#525252;}
</style>
<path class="st0" d="M1018.3,1045.2l22.5-114.5l36.5,82.7l37.8-82.7l20.1,114.5h-16.5l-10.3-64.3l-31.6,69.2l-30.6-69.2l-11.5,64.3
	L1018.3,1045.2L1018.3,1045.2z"/>
<path class="st0" d="M925.1,1054.7h79.9v14.5h-79.9V1054.7z"/>
<g>
	<path class="st0" d="M912.9,938.7v68.9c0,8.3-0.5,14.3-1.7,18.4c-1.2,4.6-3,8.4-5.9,11.7c-5.4,6.2-12.5,9.5-21.4,9.5
		c-6.7,0-13-1.7-18.7-5.2l7.9-13.8c3.9,2.7,7.6,3.9,11,3.9c4.7,0,8.1-1.9,10-5.4c1.9-3.7,2.9-10,2.9-19.1v-68.7H912.9z"/>
</g>
</svg>
