<?xml version="1.0" encoding="utf-8"?>
<!-- Generator: Adobe Illustrator 18.1.1, SVG Export Plug-In . SVG Version: 6.00 Build 0)  -->
<svg version="1.1" id="Layer_1" xmlns="http://www.w3.org/2000/svg" xmlns:xlink="http://www.w3.org/1999/xlink" x="0px" y="0px"
	 viewBox="0 0 2000 2000" enable-background="new 0 0 2000 2000" xml:space="preserve">
<path fill="#525252" d="M1115.6,1306.7l147.8-753.3l240,544.4l248.9-544.4l132.2,753.3h-108.9l-67.8-423.3L1500,1338.9l-201.1-455.6
	l-75.6,423.3H1115.6z"/>
<path fill="#525252" d="M502.2,1368.9h525.6v95.6H502.2V1368.9z"/>
<g>
	<path fill="#525252" d="M422.2,605.6v453.3c0,54.4-3.3,94.4-11.1,121.1c-7.8,30-20,55.6-38.9,76.7c-35.6,41.1-82.2,62.2-141.1,62.2
		c-44.4,0-85.6-11.1-123.3-34.4l52.2-91.1c25.6,17.8,50,25.6,72.2,25.6c31.1,0,53.3-12.2,65.6-35.6c12.2-24.4,18.9-65.6,18.9-125.6
		V605.6H422.2z"/>
</g>
</svg>
