<?xml version="1.0" encoding="utf-8"?>
<!-- Generator: Adobe Illustrator 18.1.1, SVG Export Plug-In . SVG Version: 6.00 Build 0)  -->
<svg version="1.1" id="Layer_1" xmlns="http://www.w3.org/2000/svg" xmlns:xlink="http://www.w3.org/1999/xlink" x="0px" y="0px"
	 viewBox="850 923 300 154" style="enable-background:new 850 923 300 154;" xml:space="preserve">
<style type="text/css">
	.st0{fill:#525252;}
</style>
<path class="st0" d="M1020.1,1050.3l25-127.2l40.6,91.9l42-91.9l22.3,127.2h-18.3l-11.4-71.4l-35.1,76.9l-34-76.9l-12.8,71.4H1020.1
	L1020.1,1050.3z"/>
<path class="st0" d="M916.6,1060.8h88.8v16.1h-88.8V1060.8z"/>
<g>
	<path class="st0" d="M903,931.9v76.6c0,9.2-0.6,15.9-1.9,20.4c-1.3,5.1-3.3,9.3-6.6,13c-6,6.9-13.9,10.6-23.8,10.6
		c-7.4,0-14.4-1.9-20.8-5.8l8.8-15.3c4.3,3,8.4,4.3,12.2,4.3c5.2,0,9-2.1,11.1-6c2.1-4.1,3.2-11.1,3.2-21.2v-76.3H903V931.9z"/>
</g>
</svg>
